Coordinates
version=1
nRows=8
nColumns=36
inDegrees=yes

Units are S.I. units (second, meters, Newtons, ...)
If the header above contains a line with 'inDegrees', this indicates whether rotational values are in degrees (yes) or radians (no).

endheader
time	pelvis_tilt	pelvis_list	pelvis_rotation	pelvis_tx	pelvis_ty	pelvis_tz	hip_flexion_r	hip_adduction_r	hip_rotation_r	knee_angle_r	knee_angle_r_beta	ankle_angle_r	subtalar_angle_r	mtp_angle_r	hip_flexion_l	hip_adduction_l	hip_rotation_l	knee_angle_l	knee_angle_l_beta	ankle_angle_l	subtalar_angle_l	mtp_angle_l	lumbar_extension	lumbar_bending	lumbar_rotation	arm_flex_r	arm_add_r	arm_rot_r	elbow_flex_r	pro_sup_r	arm_flex_l	arm_add_l	arm_rot_l	elbow_flex_l	pro_sup_l
      0.99000000	     -5.23202992	      0.96006033	      5.88992951	      1.05266142	      0.94339278	     -0.21300963	     31.60933128	     -2.35335039	     -0.73975670	     20.07209292	      0.35032411	     -3.26396443	    -12.07450387	     -7.27828800	     -3.91406071	      5.63697092	     -0.53488164	      3.14253582	      0.05484760	     13.62162540	     11.43285113	     -7.27828800	     -6.26284004	     -3.03756373	    -12.84782277	    -13.34884456	    -10.18983214	     14.09659044	     27.34266680	    106.45277147	     11.71516778	    -14.80178813	      6.91787027	     54.58740593	    101.25631018
      1.00000000	     -5.02132333	      1.07919853	      6.12558787	      1.06577867	      0.94135346	     -0.21300518	     31.09855740	     -2.55274657	     -1.25103312	     16.19447119	      0.28264684	     -2.78293061	    -10.47216574	     -7.29767088	     -5.01630047	      5.50705409	     -1.58414396	      3.23767639	      0.05650811	     15.01655937	     13.94752962	     -7.29767088	     -6.48457354	     -3.13661715	    -12.95125845	    -14.46325056	     -9.67099137	     11.45799875	     27.06269924	    106.01702130	     12.75944012	    -14.91015792	      7.18660836	     55.40258335	    101.37569142
      1.01000000	     -5.13256925	      1.27458765	      6.41330174	      1.07868668	      0.93881630	     -0.21298807	     30.93622070	     -2.81207826	     -1.58712036	     12.56281670	      0.21926251	     -2.57831740	     -9.43492065	     -7.30036777	     -5.83265628	      5.56449948	     -1.30588180	      3.24467239	      0.05663022	     15.54058210	     14.10613817	     -7.30036777	     -6.34567924	     -3.39298342	    -13.28393528	    -15.24609828	     -9.46512737	     11.09651234	     26.43721536	    105.92921426	     13.57280841	    -15.03707529	      7.19793568	     56.24681880	    101.47038664
      1.02000000	     -5.06307071	      1.41028784	      6.72268783	      1.09172050	      0.93639509	     -0.21296879	     30.59818448	     -2.98977972	     -2.26758074	      9.34695816	      0.16313519	     -2.22017572	     -8.31445859	     -7.30481992	     -6.75669275	      5.51457372	     -0.98231023	      3.42884583	      0.05984465	     16.19286817	     14.36899950	     -7.30481992	     -6.44047157	     -3.54902796	    -13.62048256	    -15.94894498	     -9.22622616	     10.38622978	     25.89557158	    105.74185628	     14.33878139	    -15.10155664	      7.06142906	     57.21290531	    101.58025473
      1.03000000	     -5.18959735	      1.50377858	      7.06435170	      1.10482929	      0.93367218	     -0.21280839	     30.50458882	     -3.09718034	     -2.82834101	      6.65705672	      0.11618756	     -1.85409903	     -7.52953291	     -7.30747948	     -7.33103186	      5.41328916	     -0.56869842	      3.87443748	      0.06762169	     16.75486736	     14.40064079	     -7.30747948	     -6.28477455	     -3.70442260	    -13.93564861	    -16.71621588	     -9.02211329	      9.96827697	     25.55074526	    105.60585887	     15.04005539	    -15.12774063	      6.89007783	     58.04768845	    101.67009315
      1.04000000	     -5.29076164	      1.56364804	      7.39125045	      1.11799408	      0.93095961	     -0.21258440	     30.49795214	     -3.12810168	     -3.53270046	      4.68462858	      0.08176219	     -1.47078776	     -7.14488546	     -7.30897548	     -7.82338989	      5.26338007	     -0.09721710	      4.51713432	      0.07883887	     17.17776567	     14.33501457	     -7.30897548	     -6.17720049	     -3.83068928	    -14.14399490	    -17.43319606	     -8.85303307	      9.71753947	     25.24839915	    105.50700658	     15.73449494	    -15.05377439	      6.70512403	     58.87623038	    101.75073222
      1.05000000	     -5.16810109	      1.43913590	      7.74301752	      1.13137673	      0.92857822	     -0.21236023	     30.29356559	     -2.96392142	     -4.62953433	      3.35653744	      0.05858263	     -0.99767960	     -6.32232931	     -7.31651091	     -8.44003419	      4.86939207	      0.30011605	      5.35863739	      0.09352587	     18.04616994	     14.19473415	     -7.31651091	     -6.33393156	     -3.66293197	    -14.68379895	    -17.93637664	     -8.64336385	      8.50982414	     25.27991545	    105.09052676	     15.99185046	    -15.04422138	      5.93669797	     60.10329733	    101.89282692
      1.06000000	     -5.18729853	      1.35470823	      8.04754575	      1.14481698	      0.92607716	     -0.21197533	     30.32177678	     -2.78559201	     -5.29619080	      2.75010521	      0.04799839	     -0.68112756	     -6.45032311	     -7.31784107	     -8.81097783	      4.53928330	      0.73778037	      6.36171228	      0.11103283	     18.31511470	     13.90681934	     -7.31784107	     -6.28038267	     -3.61155595	    -14.82085857	    -18.50956184	     -8.53165750	      8.42887929	     25.12355622	    105.03885812	     16.57772911	    -14.89179851	      5.78816229	     60.77286563	    101.96116780
